<?xml version="1.0" encoding="utf-8"?>
<!-- Generator: Adobe Illustrator 19.0.0, SVG Export Plug-In . SVG Version: 6.00 Build 0)  -->
<svg version="1.1" id="icon" xmlns="http://www.w3.org/2000/svg" xmlns:xlink="http://www.w3.org/1999/xlink" x="0px" y="0px"
	 viewBox="0 0 128 128" style="enable-background:new 0 0 128 128;" xml:space="preserve">
<g id="XMLID_2_">
	<path id="XMLID_23_" d="M64,6.4C32.2,6.4,6.4,32.2,6.4,64c0,31.8,25.8,57.6,57.6,57.6c31.8,0,57.6-25.8,57.6-57.6
		C121.6,32.2,95.8,6.4,64,6.4z M64,118c-29.8,0-54-24.2-54-54s24.2-54,54-54s54,24.2,54,54S93.8,118,64,118z"/>
	<path id="XMLID_6_" d="M62.9,55L35.4,33.4v61.9l17.3-15.4l11.4,11.4l10.7-10.7v12.6h19.6V35H82.9L62.9,55z M39,87.2V40.8l27.7,21.8
		L39,87.2z M90.8,38.6v51.1H78.4V72L64.1,86.2l-8.7-8.7l16.9-15.1l-6.6-5.2l18.7-18.7H90.8z"/>
</g>
</svg>
